<?xml version="1.0"?>
<svg height="512pt" viewBox="0 -43 512.001 512" width="512pt" xmlns="http://www.w3.org/2000/svg"><path d="m265.347656 146.449219h160.90625v-59.796875c0-47.78125-39.34375-86.652344-87.707031-86.652344h-250.839844c-48.363281 0-87.707031 38.871094-87.707031 86.652344v88.613281c0 42.660156 31.363281 78.21875 72.503906 85.351563v63c0 6.171874 3.734375 11.730468 9.445313 14.070312 1.863281.761719 3.816406 1.132812 5.753906 1.132812 4.003906 0 7.933594-1.582031 10.847656-4.546874l70.960938-72.203126v-20.539062c-.003907-52.429688 42.992187-95.082031 95.835937-95.082031zm0 0" data-original="#000000" class="active-path" data-old_color="#000000" fill="#FFFFFF"/><path d="m171.292969 211.171875h297.414062v37.5h-297.414062zm0 0" data-original="#000000" class="active-path" data-old_color="#000000" fill="#FFFFFF"/><path d="m171.292969 291.171875h297.414062v37.5h-297.414062zm0 0" data-original="#000000" class="active-path" data-old_color="#000000" fill="#FFFFFF"/><path d="m445.085938 175.375h-179.738282c-36.894531 0-66.910156 29.675781-66.910156 66.15625v63.492188c0 36.480468 30.015625 66.160156 66.910156 66.160156h119.3125l49.757813 50.628906c2.867187 2.917969 6.734375 4.476562 10.671875 4.472656 1.90625 0 3.828125-.363281 5.664062-1.113281 5.621094-2.300781 9.296875-7.773437 9.296875-13.847656v-41.808594c29.71875-6.734375 51.949219-33.09375 51.949219-64.492187v-63.492188c0-36.480469-30.015625-66.15625-66.914062-66.15625zm0 0" data-original="#000000" class="active-path" data-old_color="#000000" fill="#FFFFFF"/><path d="m171.292969 211.171875h297.414062v37.5h-297.414062zm0 0" data-original="#000000" class="active-path" data-old_color="#000000" fill="#FFFFFF"/><path d="m171.292969 291.171875h297.414062v37.5h-297.414062zm0 0" data-original="#000000" class="active-path" data-old_color="#000000" fill="#FFFFFF"/></svg>