<svg xmlns="http://www.w3.org/2000/svg" width="118.991" height="164.345" viewBox="0 0 118.991 164.345">
  <g id="IconeRezume" transform="translate(-40.13 -15.43)">
    <path id="Tracé_9" data-name="Tracé 9" d="M116.759,24.28A42.332,42.332,0,0,0,74.427,66.612V87.987h0v3.624h-.7V91.7c-2.837.117-13.913,1.049-18.82,8.531H40.13l12.388,8.6H74.447v24.29l-12.359,7.044,12.378,8.6c17.285.1,17.129-21.9,17.129-21.9V108.838h25.951A25.086,25.086,0,0,1,141.632,133.9a25.961,25.961,0,0,1-8.56,18.907l-3.265,3.167a15.154,15.154,0,0,0-1.166,1.312l-1.535-1.36-9.794,15.5,12.388,8.6,15.332-14.856A42.944,42.944,0,0,0,158.917,133.9a42.2,42.2,0,0,0-16.673-33.617A42.2,42.2,0,0,0,159.121,66.6h0v-.126a42.235,42.235,0,0,0-42.361-42.2Zm.758,67.351H91.634V66.612a25.077,25.077,0,1,1,25.883,25.018Z" transform="translate(0 -0.251)" fill="#e5e4e4"/>
    <path id="Tracé_10" data-name="Tracé 10" d="M104.372,15.43A42.332,42.332,0,0,0,62.04,57.762V79.137h0v3.624H61.38c-3.692.136-21.307,1.729-21.22,17.2H62.1l.049,39.962c17.285.1,17.119-21.909,17.119-21.909V99.988h25.951a25.087,25.087,0,0,1,24.1,25.067,25.961,25.961,0,0,1-8.569,18.907l-3.284,3.187s-12.193,11.659-.107,24.047l15.341-14.856a42.935,42.935,0,0,0,13.874-31.266,42.2,42.2,0,0,0-16.663-33.617,42.216,42.216,0,0,0,16.828-33.695h0v-.136a42.245,42.245,0,0,0-42.361-42.2Zm-.058,67.3H79.247V57.762h0A25.077,25.077,0,1,1,105.1,82.781C104.858,82.771,104.586,82.732,104.314,82.732Z" transform="translate(-0.001 0)"/>
  </g>
</svg>
