<svg xmlns="http://www.w3.org/2000/svg" width="371.38" height="169.15" viewBox="0 0 371.38 169.15">
  <g id="LogoRezume" transform="translate(-83.98 -15.43)">
    <path id="Tracé_2" data-name="Tracé 2" d="M162.84,24.28a43.568,43.568,0,0,0-43.56,43.56V89.85h0v3.73h-.72v.09c-2.93.12-14.32,1.08-19.38,8.78H83.98l12.75,8.85H119.3v25l-12.72,7.25,12.74,8.85c17.79.1,17.63-22.54,17.63-22.54V111.31h26.7a25.82,25.82,0,0,1,24.8,25.8,26.72,26.72,0,0,1-8.81,19.46l-3.36,3.26a14.533,14.533,0,0,0-1.21,1.35l-1.57-1.4-10.08,15.95,12.74,8.85L192,169.28a44.2,44.2,0,0,0,14.29-32.18,43.43,43.43,0,0,0-17.16-34.6,43.45,43.45,0,0,0,17.32-34.66h0v-.13a43.48,43.48,0,0,0-43.61-43.43Zm.78,69.32H137V67.85A25.81,25.81,0,1,1,163.62,93.6Z" fill="#e5e4e4"/>
    <path id="Tracé_3" data-name="Tracé 3" d="M150.1,15.43A43.57,43.57,0,0,0,106.53,59V81h0v3.73h-.72c-3.8.14-21.92,1.78-21.83,17.7h22.57l.06,41.13c17.78.1,17.62-22.55,17.62-22.55V102.46h26.71a25.81,25.81,0,0,1,24.79,25.8,26.72,26.72,0,0,1-8.81,19.46L163.57,151s-12.55,12-.11,24.75l15.79-15.29a44.23,44.23,0,0,0,14.28-32.18,43.43,43.43,0,0,0-17.15-34.6A43.45,43.45,0,0,0,193.7,59h0v-.14a43.47,43.47,0,0,0-43.6-43.43ZM150,84.7H124.24V59h0a25.81,25.81,0,1,1,26.64,25.75C150.59,84.74,150.32,84.7,150,84.7Z"/>
    <path id="Tracé_4" data-name="Tracé 4" d="M225.04,114.77H243.1v-4.35H229.73V102.6h11.53V98.24H229.73V90.61H243.1V86.29H225.04Z"/>
    <path id="Tracé_5" data-name="Tracé 5" d="M292.28,90.96V86.29h-21.1v4.32h15.3l-15.63,19.45v4.71H292.6v-4.35H276.61Z"/>
    <path id="Tracé_6" data-name="Tracé 6" d="M455.36,90.61V86.29H437.3v28.48h18.06v-4.35H441.98V102.6h11.53V98.24H441.98V90.61Z"/>
    <path id="Tracé_7" data-name="Tracé 7" d="M391.31,101.42l-9.7-15.13h-5.76v28.48h4.68V93.04l10.41,15.71L401.4,92.94v21.83h4.68V86.29h-5.06Z"/>
    <path id="Tracé_8" data-name="Tracé 8" d="M340.23,103.23a7.78,7.78,0,0,1-1.87,5.42,6.94,6.94,0,0,1-10,0,7.84,7.84,0,0,1-1.89-5.43V86.29h-4.68v17a12.38,12.38,0,0,0,3.15,8.83,11,11,0,0,0,8.35,3.31,11.15,11.15,0,0,0,8.39-3.32,12.23,12.23,0,0,0,3.2-8.82v-17h-4.69Z"/>
  </g>
</svg>
